# Blender v2.92.0 OBJ File: ''
# www.blender.org
mtllib smooth_circle.mtl
o Sphere
v 0.000000 -0.980785 -0.000000
v 0.180240 -0.906127 0.188049
v 0.191342 -0.961940 -0.000000
v 0.000000 -0.195090 0.786150
v 0.000000 -0.000000 0.805365
v 0.038060 -0.191342 0.786150
v 0.000000 -0.382683 0.729245
v 0.074658 -0.375330 0.729245
v 0.000000 -0.555570 0.636835
v 0.108386 -0.544895 0.636835
v 0.000000 -0.707107 0.512472
v 0.137950 -0.693520 0.512472
v 0.000000 -0.831470 0.360935
v 0.162212 -0.815493 0.360935
v 0.000000 -0.923879 0.188049
v 0.318190 -0.768178 0.360935
v 0.353553 -0.853553 0.188049
v 0.375330 -0.906127 -0.000000
v 0.074658 -0.180240 0.786150
v 0.146447 -0.353553 0.729245
v 0.212608 -0.513280 0.636835
v 0.270598 -0.653281 0.512472
v 0.212608 -0.318190 0.729245
v 0.308658 -0.461940 0.636835
v 0.392847 -0.587938 0.512472
v 0.461940 -0.691342 0.360935
v 0.513280 -0.768178 0.188049
v 0.544895 -0.815493 -0.000000
v 0.108386 -0.162212 0.786150
v 0.653281 -0.653281 0.188049
v 0.693520 -0.693520 -0.000000
v 0.137950 -0.137950 0.786150
v 0.270598 -0.270598 0.729245
v 0.392847 -0.392847 0.636835
v 0.500000 -0.500000 0.512472
v 0.587938 -0.587938 0.360935
v 0.461940 -0.308658 0.636835
v 0.587938 -0.392847 0.512472
v 0.691342 -0.461940 0.360935
v 0.768178 -0.513280 0.188049
v 0.815493 -0.544895 -0.000000
v 0.162212 -0.108386 0.786150
v 0.318190 -0.212608 0.729245
v 0.853553 -0.353553 0.188049
v 0.906127 -0.375330 -0.000000
v 0.180240 -0.074658 0.786150
v 0.353553 -0.146447 0.729245
v 0.513280 -0.212607 0.636835
v 0.653281 -0.270598 0.512472
v 0.768178 -0.318190 0.360935
v 0.544895 -0.108386 0.636835
v 0.693520 -0.137950 0.512472
v 0.815493 -0.162212 0.360935
v 0.906127 -0.180240 0.188049
v 0.961940 -0.191342 -0.000000
v 0.191342 -0.038060 0.786150
v 0.375330 -0.074658 0.729245
v 0.923879 -0.000000 0.188049
v 0.980785 0.000000 0.000000
v 0.195090 -0.000000 0.786150
v 0.382683 -0.000000 0.729245
v 0.555570 -0.000000 0.636835
v 0.707107 -0.000000 0.512472
v 0.831469 -0.000000 0.360935
v 0.693520 0.137950 0.512472
v 0.815493 0.162212 0.360935
v 0.906127 0.180240 0.188049
v 0.961940 0.191342 0.000000
v 0.191342 0.038060 0.786150
v 0.375330 0.074658 0.729245
v 0.544895 0.108386 0.636835
v 0.180240 0.074658 0.786150
v 0.353553 0.146447 0.729245
v 0.513280 0.212608 0.636836
v 0.653281 0.270598 0.512473
v 0.768178 0.318190 0.360936
v 0.853553 0.353553 0.188050
v 0.906127 0.375330 0.000000
v 0.587938 0.392847 0.512473
v -0.108386 -0.544895 0.636835
v -0.074658 -0.375330 0.729245
v 0.691341 0.461940 0.360936
v -0.038060 -0.191342 0.786150
v 0.768178 0.513280 0.188050
v -0.191341 -0.961939 -0.000000
v -0.180240 -0.906127 0.188049
v 0.815493 0.544895 0.000000
v -0.074658 -0.180240 0.786150
v 0.162212 0.108386 0.786150
v -0.375330 -0.906127 -0.000000
v -0.353553 -0.853553 0.188049
v -0.162211 -0.815493 0.360935
v 0.318190 0.212608 0.729245
v -0.137950 -0.693520 0.512472
v 0.461940 0.308658 0.636836
v -0.318189 -0.768177 0.360935
v 0.137950 0.137950 0.786150
v -0.544895 -0.815493 -0.000000
v -0.513280 -0.768177 0.188049
v -0.270598 -0.653281 0.512472
v 0.270598 0.270598 0.729245
v -0.212607 -0.513279 0.636835
v 0.392847 0.392847 0.636836
v -0.146446 -0.353553 0.729245
v 0.500000 0.500000 0.512473
v -0.461939 -0.691341 0.360935
v -0.392847 -0.587938 0.512472
v 0.587938 0.587938 0.360936
v -0.308658 -0.461939 0.636835
v 0.653281 0.653281 0.188050
v -0.212607 -0.318190 0.729245
v 0.693520 0.693520 0.000000
v -0.108386 -0.162212 0.786150
v -0.392847 -0.392847 0.636835
v 0.392847 0.587938 0.512473
v 0.461940 0.691342 0.360936
v -0.270598 -0.270598 0.729245
v 0.513280 0.768178 0.188050
v -0.137950 -0.137950 0.786150
v 0.544895 0.815493 0.000000
v -0.691341 -0.461940 0.360935
v -0.587938 -0.392847 0.512472
v -0.500000 -0.500000 0.512472
v 0.108386 0.162212 0.786150
v -0.461939 -0.308658 0.636835
v -0.693519 -0.693520 -0.000000
v -0.653281 -0.653281 0.188049
v 0.212607 0.318190 0.729245
v -0.587937 -0.587938 0.360935
v 0.308658 0.461940 0.636836
v -0.353553 -0.146447 0.729245
v -0.318189 -0.212607 0.729245
v -0.162212 -0.108386 0.786150
v 0.146447 0.353553 0.729246
v -0.815493 -0.544895 -0.000000
v -0.768177 -0.513280 0.188049
v 0.212607 0.513280 0.636836
v 0.270598 0.653281 0.512473
v -0.906127 -0.375330 -0.000000
v -0.853553 -0.353553 0.188049
v 0.318189 0.768178 0.360936
v -0.768177 -0.318190 0.360935
v 0.353553 0.853553 0.188050
v -0.653281 -0.270598 0.512472
v 0.375330 0.906127 0.000000
v -0.513279 -0.212607 0.636835
v 0.074658 0.180240 0.786150
v -0.815493 -0.162212 0.360935
v 0.180240 0.906127 0.188050
v -0.693520 -0.137950 0.512472
v 0.191342 0.961939 0.000000
v -0.980785 0.000000 0.000000
v -0.923879 -0.000000 0.188049
v -0.906127 -0.180240 0.188049
v -0.180240 -0.074658 0.786150
v 0.038060 0.191342 0.786151
v -0.831469 -0.000000 0.360935
v -0.544895 -0.108386 0.636835
v 0.074658 0.375330 0.729246
v -0.375330 -0.074658 0.729245
v 0.108386 0.544895 0.636836
v -0.191342 -0.038060 0.786150
v 0.137950 0.693520 0.512473
v -0.961939 -0.191342 -0.000000
v 0.162212 0.815493 0.360936
v 0.000000 0.382683 0.729246
v -0.555570 -0.000000 0.636835
v -0.382683 -0.000000 0.729245
v 0.000000 0.555570 0.636836
v -0.195090 -0.000000 0.786150
v 0.000000 0.707107 0.512473
v -0.544895 0.108386 0.636835
v -0.707107 -0.000000 0.512472
v 0.000000 0.831469 0.360936
v -0.375330 0.074658 0.729245
v 0.000000 0.923879 0.188050
v -0.191342 0.038060 0.786150
v 0.000000 0.980785 0.000000
v -0.961939 0.191341 0.000000
v -0.906127 0.180240 0.188049
v 0.000000 0.195090 0.786151
v -0.815493 0.162211 0.360935
v -0.180240 0.906127 0.188050
v -0.180240 0.074658 0.786150
v -0.191342 0.961939 0.000000
v -0.318190 0.212607 0.729245
v -0.353553 0.146447 0.729245
v -0.513280 0.212607 0.636836
v -0.693520 0.137950 0.512472
v -0.038060 0.191342 0.786151
v -0.162212 0.108386 0.786150
v -0.906127 0.375330 0.000000
v -0.853553 0.353553 0.188050
v -0.074658 0.375330 0.729246
v -0.768177 0.318189 0.360936
v -0.108386 0.544895 0.636836
v -0.653281 0.270598 0.512473
v -0.137950 0.693520 0.512473
v -0.162212 0.815493 0.360936
v -0.587938 0.392847 0.512473
v -0.212608 0.513280 0.636836
v -0.461940 0.308658 0.636836
v -0.270598 0.653281 0.512473
v -0.587938 0.587937 0.360936
v -0.691341 0.461939 0.360936
v -0.768177 0.513280 0.188050
v -0.318190 0.768177 0.360936
v -0.500000 0.500000 0.512473
v -0.353553 0.853553 0.188050
v -0.392847 0.392847 0.636836
v -0.375330 0.906127 0.000000
v -0.270598 0.270598 0.729245
v -0.815493 0.544895 0.000000
v -0.074658 0.180240 0.786150
v -0.137950 0.137950 0.786150
v -0.146447 0.353553 0.729246
v -0.212608 0.318190 0.729245
v -0.513280 0.768178 0.188050
v -0.544895 0.815493 0.000000
v -0.461940 0.691341 0.360936
v -0.693520 0.693520 0.000000
v -0.653281 0.653281 0.188050
v -0.108386 0.162212 0.786150
v -0.392847 0.587938 0.512473
v -0.308658 0.461939 0.636836
vn 0.0000 0.9571 -0.2896
vn -0.1804 0.9071 -0.3802
vn -0.1867 0.9387 -0.2896
vn 0.0000 0.2010 -0.9796
vn 0.0000 0.0000 -1.0000
vn -0.0392 0.1971 -0.9796
vn 0.0000 0.3879 -0.9217
vn -0.0757 0.3804 -0.9217
vn 0.0000 0.5598 -0.8286
vn -0.1092 0.5490 -0.8286
vn 0.0000 0.7101 -0.7040
vn -0.1385 0.6965 -0.7040
vn 0.0000 0.8333 -0.5528
vn -0.1626 0.8173 -0.5528
vn 0.0000 0.9249 -0.3802
vn -0.3189 0.7699 -0.5528
vn -0.3539 0.8545 -0.3802
vn -0.3663 0.8843 -0.2896
vn -0.0769 0.1856 -0.9796
vn -0.1484 0.3583 -0.9217
vn -0.2142 0.5171 -0.8286
vn -0.2717 0.6561 -0.7040
vn -0.2155 0.3225 -0.9217
vn -0.3110 0.4654 -0.8286
vn -0.3945 0.5904 -0.7040
vn -0.4630 0.6929 -0.5528
vn -0.5138 0.7690 -0.3802
vn -0.5318 0.7958 -0.2896
vn -0.1116 0.1671 -0.9796
vn -0.6540 0.6540 -0.3802
vn -0.6768 0.6768 -0.2896
vn -0.1421 0.1421 -0.9796
vn -0.2743 0.2743 -0.9217
vn -0.3958 0.3958 -0.8286
vn -0.5021 0.5021 -0.7040
vn -0.5893 0.5893 -0.5528
vn -0.4654 0.3110 -0.8286
vn -0.5904 0.3945 -0.7040
vn -0.6929 0.4630 -0.5528
vn -0.7690 0.5138 -0.3802
vn -0.7958 0.5318 -0.2896
vn -0.1671 0.1116 -0.9796
vn -0.3225 0.2155 -0.9217
vn -0.8545 0.3539 -0.3802
vn -0.8843 0.3663 -0.2896
vn -0.1856 0.0769 -0.9796
vn -0.3583 0.1484 -0.9217
vn -0.5171 0.2142 -0.8286
vn -0.6561 0.2717 -0.7040
vn -0.7699 0.3189 -0.5528
vn -0.5490 0.1092 -0.8286
vn -0.6965 0.1385 -0.7040
vn -0.8173 0.1626 -0.5528
vn -0.9071 0.1804 -0.3802
vn -0.9387 0.1867 -0.2896
vn -0.1971 0.0392 -0.9796
vn -0.3804 0.0757 -0.9217
vn -0.9249 0.0000 -0.3802
vn -0.9571 0.0000 -0.2896
vn -0.2010 0.0000 -0.9796
vn -0.3879 0.0000 -0.9217
vn -0.5598 0.0000 -0.8286
vn -0.7101 0.0000 -0.7040
vn -0.8333 0.0000 -0.5528
vn -0.6965 -0.1385 -0.7040
vn -0.8173 -0.1626 -0.5528
vn -0.9071 -0.1804 -0.3802
vn -0.9387 -0.1867 -0.2896
vn -0.1971 -0.0392 -0.9796
vn -0.3804 -0.0757 -0.9217
vn -0.5490 -0.1092 -0.8286
vn -0.1856 -0.0769 -0.9796
vn -0.3583 -0.1484 -0.9217
vn -0.5171 -0.2142 -0.8286
vn -0.6561 -0.2717 -0.7040
vn -0.7699 -0.3189 -0.5528
vn -0.8545 -0.3539 -0.3802
vn -0.8843 -0.3663 -0.2896
vn -0.5904 -0.3945 -0.7040
vn 0.1092 0.5490 -0.8286
vn 0.0757 0.3804 -0.9217
vn -0.6929 -0.4630 -0.5528
vn 0.0392 0.1971 -0.9796
vn -0.7690 -0.5138 -0.3802
vn 0.1867 0.9387 -0.2896
vn 0.1804 0.9071 -0.3802
vn -0.7958 -0.5318 -0.2896
vn 0.0769 0.1856 -0.9796
vn -0.1671 -0.1116 -0.9796
vn 0.3663 0.8843 -0.2896
vn 0.3539 0.8545 -0.3802
vn 0.1626 0.8173 -0.5528
vn -0.3225 -0.2155 -0.9217
vn 0.1385 0.6965 -0.7040
vn -0.4654 -0.3110 -0.8286
vn 0.3189 0.7699 -0.5528
vn -0.1421 -0.1421 -0.9796
vn 0.5318 0.7958 -0.2896
vn 0.5138 0.7690 -0.3802
vn 0.2717 0.6561 -0.7040
vn -0.2743 -0.2743 -0.9217
vn 0.2142 0.5171 -0.8286
vn -0.3958 -0.3958 -0.8286
vn 0.1484 0.3583 -0.9217
vn -0.5021 -0.5021 -0.7040
vn 0.4630 0.6929 -0.5528
vn 0.3945 0.5904 -0.7040
vn -0.5893 -0.5893 -0.5528
vn 0.3110 0.4654 -0.8286
vn -0.6540 -0.6540 -0.3802
vn 0.2155 0.3225 -0.9217
vn -0.6768 -0.6768 -0.2896
vn 0.1116 0.1671 -0.9796
vn 0.3958 0.3958 -0.8286
vn -0.3945 -0.5904 -0.7040
vn -0.4630 -0.6929 -0.5528
vn 0.2743 0.2743 -0.9217
vn -0.5138 -0.7690 -0.3802
vn 0.1421 0.1421 -0.9796
vn -0.5318 -0.7958 -0.2896
vn 0.6929 0.4630 -0.5528
vn 0.5904 0.3945 -0.7040
vn 0.5021 0.5021 -0.7040
vn -0.1116 -0.1671 -0.9796
vn 0.4654 0.3110 -0.8286
vn 0.6768 0.6768 -0.2896
vn 0.6540 0.6540 -0.3802
vn -0.2155 -0.3225 -0.9217
vn 0.5893 0.5893 -0.5528
vn -0.3110 -0.4654 -0.8286
vn 0.3583 0.1484 -0.9217
vn 0.3225 0.2155 -0.9217
vn 0.1671 0.1116 -0.9796
vn -0.1484 -0.3583 -0.9217
vn 0.7958 0.5318 -0.2896
vn 0.7690 0.5138 -0.3802
vn -0.2142 -0.5171 -0.8286
vn -0.2717 -0.6561 -0.7040
vn 0.8843 0.3663 -0.2896
vn 0.8545 0.3539 -0.3802
vn -0.3189 -0.7699 -0.5528
vn 0.7699 0.3189 -0.5528
vn -0.3539 -0.8545 -0.3802
vn 0.6561 0.2717 -0.7040
vn -0.3663 -0.8843 -0.2896
vn 0.5171 0.2142 -0.8286
vn -0.0769 -0.1856 -0.9796
vn 0.8173 0.1626 -0.5528
vn -0.1804 -0.9071 -0.3802
vn 0.6965 0.1385 -0.7040
vn -0.1867 -0.9387 -0.2896
vn 0.9571 0.0000 -0.2896
vn 0.9249 0.0000 -0.3802
vn 0.9071 0.1804 -0.3802
vn 0.1856 0.0769 -0.9796
vn -0.0392 -0.1971 -0.9796
vn 0.8333 0.0000 -0.5528
vn 0.5490 0.1092 -0.8286
vn -0.0757 -0.3804 -0.9217
vn 0.3804 0.0757 -0.9217
vn -0.1092 -0.5490 -0.8286
vn 0.1971 0.0392 -0.9796
vn -0.1385 -0.6965 -0.7040
vn 0.9387 0.1867 -0.2896
vn -0.1626 -0.8173 -0.5528
vn 0.0000 -0.3879 -0.9217
vn 0.5598 0.0000 -0.8286
vn 0.3879 0.0000 -0.9217
vn 0.0000 -0.5598 -0.8286
vn 0.2010 0.0000 -0.9796
vn 0.0000 -0.7101 -0.7040
vn 0.5490 -0.1092 -0.8286
vn 0.7101 0.0000 -0.7040
vn 0.0000 -0.8333 -0.5528
vn 0.3804 -0.0757 -0.9217
vn 0.0000 -0.9249 -0.3802
vn 0.1971 -0.0392 -0.9796
vn 0.0000 -0.9571 -0.2896
vn 0.9387 -0.1867 -0.2896
vn 0.9071 -0.1804 -0.3802
vn 0.0000 -0.2010 -0.9796
vn 0.8173 -0.1626 -0.5528
vn 0.1804 -0.9071 -0.3802
vn 0.1856 -0.0769 -0.9796
vn 0.1867 -0.9387 -0.2896
vn 0.3225 -0.2155 -0.9217
vn 0.3583 -0.1484 -0.9217
vn 0.5171 -0.2142 -0.8286
vn 0.6965 -0.1385 -0.7040
vn 0.0392 -0.1971 -0.9796
vn 0.1671 -0.1116 -0.9796
vn 0.8843 -0.3663 -0.2896
vn 0.8545 -0.3539 -0.3802
vn 0.0757 -0.3804 -0.9217
vn 0.7699 -0.3189 -0.5528
vn 0.1092 -0.5490 -0.8286
vn 0.6561 -0.2717 -0.7040
vn 0.1385 -0.6965 -0.7040
vn 0.1626 -0.8173 -0.5528
vn 0.5904 -0.3945 -0.7040
vn 0.2142 -0.5171 -0.8286
vn 0.4654 -0.3110 -0.8286
vn 0.2717 -0.6561 -0.7040
vn 0.5893 -0.5893 -0.5528
vn 0.6929 -0.4630 -0.5528
vn 0.7690 -0.5138 -0.3802
vn 0.3189 -0.7699 -0.5528
vn 0.5021 -0.5021 -0.7040
vn 0.3539 -0.8545 -0.3802
vn 0.3958 -0.3958 -0.8286
vn 0.3663 -0.8843 -0.2896
vn 0.2743 -0.2743 -0.9217
vn 0.7958 -0.5318 -0.2896
vn 0.0769 -0.1856 -0.9796
vn 0.1421 -0.1421 -0.9796
vn 0.1484 -0.3583 -0.9217
vn 0.2155 -0.3225 -0.9217
vn 0.5138 -0.7690 -0.3802
vn 0.5318 -0.7958 -0.2896
vn 0.4630 -0.6929 -0.5528
vn 0.6768 -0.6768 -0.2896
vn 0.6540 -0.6540 -0.3802
vn 0.1116 -0.1671 -0.9796
vn 0.3945 -0.5904 -0.7040
vn 0.3110 -0.4654 -0.8286
usemtl Default_OBJ
s 1
f 1//1 2//2 3//3
f 4//4 5//5 6//6
f 7//7 6//6 8//8
f 9//9 8//8 10//10
f 11//11 10//10 12//12
f 13//13 12//12 14//14
f 15//15 14//14 2//2
f 12//12 16//16 14//14
f 14//14 17//17 2//2
f 3//3 17//17 18//18
f 6//6 5//5 19//19
f 6//6 20//20 8//8
f 8//8 21//21 10//10
f 10//10 22//22 12//12
f 19//19 23//23 20//20
f 20//20 24//24 21//21
f 21//21 25//25 22//22
f 22//22 26//26 16//16
f 16//16 27//27 17//17
f 17//17 28//28 18//18
f 19//19 5//5 29//29
f 26//26 30//30 27//27
f 28//28 30//30 31//31
f 29//29 5//5 32//32
f 29//29 33//33 23//23
f 23//23 34//34 24//24
f 24//24 35//35 25//25
f 25//25 36//36 26//26
f 33//33 37//37 34//34
f 34//34 38//38 35//35
f 36//36 38//38 39//39
f 36//36 40//40 30//30
f 31//31 40//40 41//41
f 32//32 5//5 42//42
f 32//32 43//43 33//33
f 41//41 44//44 45//45
f 42//42 5//5 46//46
f 42//42 47//47 43//43
f 43//43 48//48 37//37
f 37//37 49//49 38//38
f 39//39 49//49 50//50
f 39//39 44//44 40//40
f 47//47 51//51 48//48
f 48//48 52//52 49//49
f 50//50 52//52 53//53
f 50//50 54//54 44//44
f 45//45 54//54 55//55
f 46//46 5//5 56//56
f 47//47 56//56 57//57
f 55//55 58//58 59//59
f 56//56 5//5 60//60
f 57//57 60//60 61//61
f 57//57 62//62 51//51
f 51//51 63//63 52//52
f 53//53 63//63 64//64
f 53//53 58//58 54//54
f 62//62 65//65 63//63
f 64//64 65//65 66//66
f 64//64 67//67 58//58
f 59//59 67//67 68//68
f 60//60 5//5 69//69
f 60//60 70//70 61//61
f 61//61 71//71 62//62
f 69//69 5//5 72//72
f 69//69 73//73 70//70
f 71//71 73//73 74//74
f 71//71 75//75 65//65
f 66//66 75//75 76//76
f 66//66 77//77 67//67
f 68//68 77//77 78//78
f 74//74 79//79 75//75
f 80//80 81//81 7//7
f 76//76 79//79 82//82
f 81//81 83//83 4//4
f 76//76 84//84 77//77
f 85//85 86//86 15//15
f 78//78 84//84 87//87
f 88//88 83//83 81//81
f 72//72 5//5 89//89
f 90//90 91//91 86//86
f 86//86 92//92 13//13
f 72//72 93//93 73//73
f 92//92 94//94 11//11
f 74//74 93//93 95//95
f 94//94 80//80 9//9
f 96//96 92//92 86//86
f 89//89 5//5 97//97
f 98//98 99//99 91//91
f 96//96 100//100 94//94
f 89//89 101//101 93//93
f 102//102 80//80 94//94
f 93//93 103//103 95//95
f 102//102 104//104 81//81
f 95//95 105//105 79//79
f 106//106 107//107 100//100
f 82//82 105//105 108//108
f 109//109 102//102 100//100
f 82//82 110//110 84//84
f 111//111 104//104 102//102
f 87//87 110//110 112//112
f 111//111 113//113 88//88
f 114//114 109//109 107//107
f 108//108 115//115 116//116
f 114//114 117//117 111//111
f 108//108 118//118 110//110
f 119//119 113//113 111//111
f 112//112 118//118 120//120
f 121//121 122//122 123//123
f 106//106 96//96 91//91
f 97//97 5//5 124//124
f 125//125 114//114 123//123
f 126//126 127//127 99//99
f 101//101 124//124 128//128
f 129//129 106//106 99//99
f 103//103 128//128 130//130
f 129//129 123//123 107//107
f 103//103 115//115 105//105
f 131//131 132//132 125//125
f 133//133 119//119 117//117
f 124//124 134//134 128//128
f 135//135 136//136 127//127
f 128//128 137//137 130//130
f 121//121 129//129 127//127
f 130//130 138//138 115//115
f 139//139 140//140 136//136
f 116//116 138//138 141//141
f 142//142 121//121 136//136
f 116//116 143//143 118//118
f 142//142 144//144 122//122
f 120//120 143//143 145//145
f 146//146 125//125 122//122
f 125//125 132//132 117//117
f 124//124 5//5 147//147
f 148//148 142//142 140//140
f 141//141 149//149 143//143
f 148//148 150//150 144//144
f 145//145 149//149 151//151
f 152//152 153//153 154//154
f 131//131 155//155 133//133
f 147//147 5//5 156//156
f 157//157 148//148 154//154
f 158//158 146//146 144//144
f 147//147 159//159 134//134
f 158//158 160//160 131//131
f 134//134 161//161 137//137
f 162//162 155//155 131//131
f 137//137 163//163 138//138
f 164//164 154//154 140//140
f 141//141 163//163 165//165
f 156//156 166//166 159//159
f 167//167 168//168 160//160
f 161//161 166//166 169//169
f 170//170 162//162 160//160
f 161//161 171//171 163//163
f 172//172 167//167 173//173
f 165//165 171//171 174//174
f 172//172 175//175 168//168
f 165//165 176//176 149//149
f 177//177 170//170 168//168
f 151//151 176//176 178//178
f 179//179 180//180 153//153
f 157//157 173//173 150//150
f 156//156 5//5 181//181
f 182//182 157//157 153//153
f 167//167 158//158 150//150
f 174//174 183//183 176//176
f 184//184 177//177 175//175
f 178//178 183//183 185//185
f 186//186 187//187 188//188
f 182//182 189//189 173//173
f 181//181 5//5 190//190
f 191//191 184//184 187//187
f 192//192 193//193 180//180
f 181//181 194//194 166//166
f 195//195 182//182 180//180
f 166//166 196//196 169//169
f 195//195 197//197 189//189
f 169//169 198//198 171//171
f 188//188 172//172 189//189
f 174//174 198//198 199//199
f 187//187 175//175 172//172
f 200//200 197//197 195//195
f 194//194 201//201 196//196
f 202//202 188//188 197//197
f 196//196 203//203 198//198
f 204//204 205//205 206//206
f 199//199 203//203 207//207
f 204//204 208//208 200//200
f 199//199 209//209 183//183
f 210//210 202//202 200//200
f 185//185 209//209 211//211
f 212//212 186//186 202//202
f 213//213 206//206 193//193
f 190//190 5//5 214//214
f 215//215 191//191 186//186
f 205//205 195//195 193//193
f 194//194 214//214 216//216
f 217//217 212//212 210//210
f 211//211 218//218 219//219
f 207//207 220//220 218//218
f 221//221 222//222 206//206
f 214//214 5//5 223//223
f 207//207 203//203 224//224
f 223//223 215//215 212//212
f 216//216 223//223 217//217
f 219//219 218//218 222//222
f 216//216 225//225 201//201
f 220//220 204//204 222//222
f 201//201 224//224 203//203
f 220//220 224//224 208//208
f 207//207 224//224 220//220
f 225//225 210//210 208//208
f 207//207 218//218 209//209
f 217//217 210//210 225//225
f 211//211 209//209 218//218
f 225//225 208//208 224//224
f 194//194 190//190 214//214
f 220//220 208//208 204//204
f 185//185 183//183 209//209
f 220//220 222//222 218//218
f 199//199 207//207 209//209
f 219//219 222//222 221//221
f 199//199 198//198 203//203
f 201//201 225//225 224//224
f 223//223 5//5 215//215
f 196//196 201//201 203//203
f 216//216 217//217 225//225
f 223//223 212//212 217//217
f 216//216 214//214 223//223
f 221//221 206//206 213//213
f 151//151 149//149 176//176
f 194//194 216//216 201//201
f 215//215 5//5 191//191
f 165//165 174//174 176//176
f 174//174 171//171 198//198
f 215//215 186//186 212//212
f 169//169 196//196 198//198
f 212//212 202//202 210//210
f 166//166 194//194 196//196
f 210//210 200//200 208//208
f 181//181 190//190 194//194
f 204//204 200//200 205//205
f 178//178 176//176 183//183
f 204//204 206//206 222//222
f 174//174 199//199 183//183
f 128//128 134//134 137//137
f 202//202 197//197 200//200
f 124//124 147//147 134//134
f 200//200 195//195 205//205
f 103//103 130//130 115//115
f 205//205 193//193 206//206
f 103//103 101//101 128//128
f 213//213 193//193 192//192
f 101//101 97//97 124//124
f 116//116 141//141 143//143
f 191//191 5//5 184//184
f 161//161 169//169 171//171
f 116//116 115//115 138//138
f 191//191 187//187 186//186
f 130//130 137//137 138//138
f 186//186 188//188 202//202
f 93//93 101//101 103//103
f 112//112 110//110 118//118
f 184//184 5//5 177//177
f 161//161 159//159 166//166
f 108//108 116//116 118//118
f 184//184 175//175 187//187
f 108//108 105//105 115//115
f 187//187 172//172 188//188
f 87//87 84//84 110//110
f 188//188 189//189 197//197
f 82//82 108//108 110//110
f 195//195 189//189 182//182
f 82//82 79//79 105//105
f 195//195 180//180 193//193
f 95//95 103//103 105//105
f 192//192 180//180 179//179
f 76//76 82//82 84//84
f 182//182 173//173 157//157
f 76//76 75//75 79//79
f 182//182 153//153 180//180
f 74//74 95//95 79//79
f 179//179 153//153 152//152
f 68//68 67//67 77//77
f 89//89 97//97 101//101
f 177//177 5//5 170//170
f 156//156 181//181 166//166
f 74//74 73//73 93//93
f 177//177 168//168 175//175
f 72//72 89//89 93//93
f 172//172 168//168 167//167
f 78//78 77//77 84//84
f 172//172 173//173 189//189
f 170//170 5//5 162//162
f 141//141 138//138 163//163
f 66//66 65//65 75//75
f 170//170 160//160 168//168
f 71//71 74//74 75//75
f 167//167 160//160 158//158
f 71//71 70//70 73//73
f 167//167 150//150 173//173
f 69//69 72//72 73//73
f 157//157 150//150 148//148
f 61//61 70//70 71//71
f 157//157 154//154 153//153
f 60//60 69//69 70//70
f 152//152 154//154 164//164
f 59//59 58//58 67//67
f 66//66 76//76 77//77
f 148//148 144//144 142//142
f 51//51 62//62 63//63
f 148//148 140//140 154//154
f 57//57 61//61 62//62
f 164//164 140//140 139//139
f 57//57 56//56 60//60
f 64//64 66//66 67//67
f 162//162 5//5 155//155
f 137//137 161//161 163//163
f 64//64 63//63 65//65
f 162//162 131//131 160//160
f 62//62 71//71 65//65
f 158//158 131//131 146//146
f 53//53 64//64 58//58
f 158//158 144//144 150//150
f 53//53 52//52 63//63
f 47//47 46//46 56//56
f 131//131 133//133 132//132
f 45//45 44//44 54//54
f 131//131 125//125 146//146
f 50//50 53//53 54//54
f 146//146 122//122 144//144
f 50//50 49//49 52//52
f 142//142 122//122 121//121
f 48//48 51//51 52//52
f 142//142 136//136 140//140
f 47//47 57//57 51//51
f 139//139 136//136 135//135
f 39//39 50//50 44//44
f 55//55 54//54 58//58
f 155//155 5//5 133//133
f 134//134 159//159 161//161
f 32//32 42//42 43//43
f 121//121 127//127 136//136
f 31//31 30//30 40//40
f 135//135 127//127 126//126
f 36//36 39//39 40//40
f 39//39 38//38 49//49
f 133//133 5//5 119//119
f 147//147 156//156 159//159
f 37//37 48//48 49//49
f 133//133 117//117 132//132
f 43//43 47//47 48//48
f 125//125 117//117 114//114
f 42//42 46//46 47//47
f 125//125 123//123 122//122
f 41//41 40//40 44//44
f 121//121 123//123 129//129
f 119//119 111//111 117//117
f 33//33 43//43 37//37
f 114//114 111//111 109//109
f 25//25 35//35 36//36
f 114//114 107//107 123//123
f 24//24 34//34 35//35
f 129//129 107//107 106//106
f 23//23 33//33 34//34
f 129//129 99//99 127//127
f 29//29 32//32 33//33
f 126//126 99//99 98//98
f 28//28 27//27 30//30
f 36//36 35//35 38//38
f 119//119 5//5 113//113
f 145//145 143//143 149//149
f 34//34 37//37 38//38
f 106//106 91//91 99//99
f 19//19 29//29 23//23
f 98//98 91//91 90//90
f 10//10 21//21 22//22
f 26//26 36//36 30//30
f 113//113 5//5 88//88
f 141//141 165//165 149//149
f 17//17 27//27 28//28
f 111//111 88//88 104//104
f 16//16 26//26 27//27
f 111//111 102//102 109//109
f 22//22 25//25 26//26
f 109//109 100//100 107//107
f 21//21 24//24 25//25
f 106//106 100//100 96//96
f 20//20 23//23 24//24
f 3//3 2//2 17//17
f 102//102 81//81 80//80
f 14//14 16//16 17//17
f 102//102 94//94 100//100
f 12//12 22//22 16//16
f 96//96 94//94 92//92
f 15//15 13//13 14//14
f 96//96 86//86 91//91
f 13//13 11//11 12//12
f 90//90 86//86 85//85
f 11//11 9//9 10//10
f 8//8 20//20 21//21
f 88//88 5//5 83//83
f 120//120 118//118 143//143
f 6//6 19//19 20//20
f 88//88 81//81 104//104
f 7//7 4//4 6//6
f 85//85 15//15 1//1
f 1//1 15//15 2//2
f 83//83 5//5 4//4
f 165//165 163//163 171//171
f 81//81 4//4 7//7
f 80//80 7//7 9//9
f 94//94 9//9 11//11
f 92//92 11//11 13//13
f 9//9 7//7 8//8
f 86//86 13//13 15//15
